PathFileType	4	(X/Y/Z)	Patient4_TMGait_0pt8_01_left_37.trc.trc
DataRate	CameraRate	NumFrames	NumMarkers	Units	OrigDataRate	OrigDataStartFrame	OrigNumFrames
85.889570552147	85.889570552147	4	33	mm	85.889570552147	89	       141
Frame#	Time	Sacral			L.Shoulder			Chest			R.Shoulder			Neck			R.ASIS			L.ASIS			R.Thigh.Superior			R.Thigh.Lateral			R.Thigh.Inferior			R.Patella			L.Thigh.Superior			L.Thigh.Lateral			L.Thigh.Inferior			L.Patella			L.Shank.Superior			L.Shank.Lateral			L.Shank.Inferior			R.Shank.Superior			R.Shank.Lateral			R.Shank.Inferior			R.Heel			R.Midfoot.Superior			R.Midfoot.Lateral			R.Toe			L.Heel			L.Midfoot.Lateral			L.Midfoot.Superior			L.Toe			L.Elbow			L.Wrist			R.Elbow			R.Wrist			
		X1	Y1	Z1	X2	Y2	Z2	X3	Y3	Z3	X4	Y4	Z4	X5	Y5	Z5	X6	Y6	Z6	X7	Y7	Z7	X8	Y8	Z8	X9	Y9	Z9	X10	Y10	Z10	X11	Y11	Z11	X12	Y12	Z12	X13	Y13	Z13	X14	Y14	Z14	X15	Y15	Z15	X16	Y16	Z16	X17	Y17	Z17	X18	Y18	Z18	X19	Y19	Z19	X20	Y20	Z20	X21	Y21	Z21	X22	Y22	Z22	X23	Y23	Z23	X24	Y24	Z24	X25	Y25	Z25	X26	Y26	Z26	X27	Y27	Z27	X28	Y28	Z28	X29	Y29	Z29	X30	Y30	Z30	X31	Y31	Z31	X32	Y32	Z32	X33	Y33	Z33	

89	41.904571428571	865.800255110226	994.756669175123	473.940044884003	1031.986703627394	1428.104720582760	293.432314366871	1137.972372962559	1358.652507685480	453.065932088806	1053.030242686921	1426.417023539718	628.681178685516	1012.602765203451	1485.588656013276	448.849814497232	1099.613102283135	933.554290690563	584.820087214858	1076.015083604242	951.039971568630	308.002344153749	1167.107726786780	750.765314333694	552.324803826212	1104.896446690518	631.271935911115	614.368082628814	1188.972799560706	590.589573655704	533.453291750774	1204.205360470573	500.234298478628	541.338181397253	1096.855315838059	726.219762897666	325.773688673953	992.433559906344	621.269649440535	265.907633993584	1074.777634245494	527.252962605379	315.125025158999	1057.886365110835	443.011243375108	311.482422520466	983.487109883157	391.703316415939	310.841967552307	836.114317505233	361.581416978861	273.407474986271	815.578556347518	234.182183665044	329.948233290142	1178.735128326778	409.206361441216	549.738781202107	1112.843225463936	302.216328949899	611.474089607090	1160.341570630211	208.973422573925	550.492937589218	1033.856736569866	42.627135180149	518.612850222082	1204.245950984416	98.542863226128	560.403141275541	1114.742433344520	37.508324560212	596.668268156419	1322.779405609295	46.628253045844	592.614661495717	623.541747011706	187.844318937210	381.209533694366	670.587151369430	128.711503191733	304.228350021232	776.222236368953	128.675870912061	319.105887551036	841.995338953573	28.950994600353	302.193745257460	1067.596668670340	1091.134214300239	149.677354961942	1314.099559935754	1018.335905373017	173.909239891303	946.386449741275	1094.335992460586	734.261628006870	951.448924242938	833.858708220550	744.656574514204	
90	41.916214285714	866.175650660945	995.696395510421	477.379884315829	1030.556699778376	1428.844091796180	294.991312322333	1138.175879844072	1359.684521215935	453.702572995082	1054.934169718919	1427.566400646344	630.070131522777	1012.848391699125	1486.576434920809	450.513552465259	1100.487430555210	934.824293945921	586.367273400208	1075.210367011945	951.903053703569	310.012998675888	1165.872172391348	749.725538418356	554.670294674167	1101.876595584845	631.283999068018	615.947243855894	1185.194634481520	589.651544310395	534.662084703104	1199.313086489486	499.188649695395	542.079667534054	1102.587822888839	728.944478735329	327.773833399991	1002.871042626158	621.176366680838	266.654302930669	1088.060305955449	529.149546218438	316.277195559333	1072.503679889044	443.726937863862	312.060475861422	996.397294562706	392.544683227324	311.199649862139	848.098208296773	367.494209694439	273.265566746842	823.106967873448	240.861359566512	329.576136252122	1172.844452779122	408.498098289772	550.535116818075	1106.075731880084	302.039834362902	612.031663640699	1152.469593133789	208.489505920228	550.723601401443	1024.718634414906	42.654156030491	518.712095359167	1195.170446348957	98.586419510707	560.603943528129	1105.546440325617	37.530242941057	596.768887662438	1313.637711530058	46.294508323924	592.876281347377	630.059722414169	205.386554831925	380.166111347847	673.394448228674	142.910085629829	303.341088339809	779.003385368259	135.367831602489	318.601811358783	836.619388832538	27.976857160664	301.711427024627	1059.078523721502	1088.526162949956	155.761143947842	1301.237542911566	998.485483368456	174.759139158296	956.306519190413	1093.135231200034	738.648048534438	975.264388253391	833.037646573815	748.235184797377	
91	41.927857142857	866.351466854002	996.586144281028	480.712789964626	1028.878654959444	1429.392441767392	296.375557016390	1138.211285550062	1360.573460223733	454.108435532583	1056.787206753052	1428.578471150274	631.287192477837	1013.027132330235	1487.426436748722	452.071056138401	1101.096037501973	935.947862566390	587.753094781185	1074.027065353945	952.709769288413	311.992842790555	1164.230153360612	748.650223603376	556.911173423777	1098.540433117267	631.252448722474	617.523055721273	1181.082883312851	588.689379283413	535.893386341204	1194.062980409088	498.146868183130	542.932924792655	1108.108502442541	731.952922726827	329.844314367011	1013.254830539549	621.549624864188	267.389905394675	1101.113561523067	531.664224378123	317.641091769845	1087.118752015529	445.143128537099	312.932347425270	1009.602591866775	393.912112033580	311.731045979147	860.653186561603	373.361630572624	273.188596405249	831.672927345831	247.523647032643	329.345404497081	1166.667325845784	407.787369534912	551.375363412197	1099.095141468365	301.816319855566	612.622840346161	1144.475704179930	208.011743543226	550.981869424607	1015.519430083310	42.716272620768	518.793950293555	1186.030622883008	98.574551458639	560.808336731342	1096.294814209237	37.527656457457	596.843790528496	1304.459929328296	45.815814791678	593.087574012881	638.119946710852	221.741911373688	379.242585107633	678.053576458671	156.564150570882	302.457607672196	783.352236251422	142.326602850465	318.130528526862	833.358326834292	27.596621003390	300.963079799952	1050.626777940532	1085.969747460622	161.810382768455	1286.883116412697	978.499796740141	175.787110840296	966.541816469724	1091.983984756533	742.900486668615	1000.062276797180	833.077995773280	751.465891434371	
92	41.939500000000	866.318090435481	997.443788061104	483.891575016815	1027.021218662109	1429.771099816199	297.572672572958	1138.097714323158	1361.325960672425	454.294776031421	1058.578769833775	1429.484830736233	632.315873031094	1013.156774517938	1488.161239786002	453.502041540972	1101.431174975468	936.946958225144	589.010465070255	1072.508233665074	953.465206822672	313.935415361918	1162.240769435575	747.624590675445	559.002306956019	1094.980872920763	631.215026735659	619.087783718927	1176.736244799641	587.746894881994	537.150419047158	1188.551968244838	497.142048460891	543.903059957150	1113.313195991510	735.266490894693	331.979760735197	1023.399435720500	622.451450694253	268.131365265363	1113.763163509124	534.832761546526	319.132599770608	1101.552124340496	447.301511558335	313.970508344804	1022.941614315550	395.834030929792	312.355283564483	873.562904887756	379.066085823745	273.190515558365	841.230308184424	253.948241954439	329.214924668016	1160.295925676886	407.097900599908	552.259639834257	1091.973729439569	301.582883686316	613.260662078358	1136.403305493344	207.557571941846	551.276870189217	1006.266748417078	42.816480404114	518.878118230256	1176.831854946438	98.513347597667	561.026272133514	1086.998486621911	37.515531232840	596.911102566697	1295.249327947980	45.237054180313	593.262904669584	647.532497925516	236.202689500702	378.469302881383	684.586455463413	169.039814561894	301.597671706325	789.419410676514	149.246623010965	317.645331163977	832.808114721625	27.950667765693	299.927499348412	1042.249252408122	1083.489745011944	167.756068761835	1270.957512077053	958.652453815889	177.041285604652	977.116245932527	1090.919694743868	746.953254060025	1025.712834355988	834.138348241046	754.296334107569	
